<?xml version="1.0" encoding="UTF-8"?><svg id="Layer_1" xmlns="http://www.w3.org/2000/svg" xmlns:xlink="http://www.w3.org/1999/xlink" viewBox="0 0 1069.89 159.33"><defs><style>.cls-1{fill:url(#New_Gradient_Swatch_2);stroke:#010101;stroke-miterlimit:10;}.cls-2{fill:url(#linear-gradient);stroke-width:0px;}</style><linearGradient id="linear-gradient" x1="225.87" y1="77.86" x2="844.37" y2="77.86" gradientUnits="userSpaceOnUse"><stop offset="0" stop-color="#3f4143"/><stop offset=".5" stop-color="#66696c"/><stop offset="1" stop-color="#535456"/></linearGradient><linearGradient id="New_Gradient_Swatch_2" x1="208.46" y1="-194.6" x2="862" y2="353.79" gradientUnits="userSpaceOnUse"><stop offset="0" stop-color="#85888a"/><stop offset=".1" stop-color="#e7e6e8"/><stop offset=".2" stop-color="#e2e3e4"/><stop offset=".35" stop-color="#97999d"/><stop offset=".5" stop-color="#bcbec0"/><stop offset=".6" stop-color="#f2f1f1"/><stop offset=".75" stop-color="#97999d"/><stop offset=".9" stop-color="#f2f1f1"/><stop offset="1" stop-color="#85888a"/></linearGradient></defs><path class="cls-2" d="M225.87,34.05h20.34c14.23,0,20.34,6.63,20.34,20.15v5.38c0,9.01-2.87,14.77-8.99,17.27v.25c6.86,2.13,9.11,8.64,9.11,18.53v15.4c0,4.26.13,7.39,1.5,10.64h-13.98c-.75-2.25-1.25-3.63-1.25-10.77v-16.02c0-8.14-2.37-10.77-8.61-10.77h-4.74v37.55h-13.73V34.05ZM244.59,71.6c5.12,0,8.24-2.25,8.24-9.26v-6.76c0-6.26-2.12-9.01-6.99-9.01h-6.24v25.04h4.99ZM295.91,34.05h18.6l14.23,87.63h-13.73l-2.5-17.4v.25h-15.6l-2.5,17.15h-12.73l14.23-87.63ZM310.89,92.63l-6.12-43.31h-.25l-5.99,43.31h12.36ZM342.23,34.05h13.73v87.63h-13.73V34.05ZM369.46,100.89v-5.01h12.98v6.01c0,6.26,2.75,8.51,7.11,8.51s7.11-2.25,7.11-8.76c0-7.26-2.75-11.89-11.73-19.78-11.48-10.14-15.23-17.28-15.23-27.29,0-13.77,7.11-21.78,20.47-21.78s19.97,8.01,19.97,22.03v3.63h-12.98v-4.51c0-6.26-2.5-8.64-6.86-8.64s-6.86,2.38-6.86,8.39c0,6.38,2.87,11.02,11.86,18.9,11.48,10.14,15.1,17.15,15.1,28.04,0,14.27-7.24,22.28-20.72,22.28s-20.22-8.01-20.22-22.03ZM423.9,34.05h37.44v12.52h-23.71v23.16h18.85v12.52h-18.85v26.91h23.71v12.52h-37.44V34.05ZM513.28,46.56h-14.35v-12.52h42.44v12.52h-14.35v75.11h-13.73V46.56ZM554.86,34.05h13.73v35.68h14.73v-35.68h13.73v87.63h-13.73v-39.43h-14.73v39.43h-13.73V34.05ZM610.54,34.05h37.44v12.52h-23.71v23.16h18.85v12.52h-18.85v26.91h23.71v12.52h-37.44V34.05ZM685.57,34.05h20.72c14.23,0,20.34,6.63,20.34,20.15v3.51c0,9.01-2.75,14.65-8.86,17.15v.25c7.36,2.5,10.23,9.01,10.23,18.28v7.51c0,13.52-7.11,20.78-20.84,20.78h-21.59V34.05ZM704.66,69.72c5.12,0,8.24-2.25,8.24-9.26v-4.88c0-6.26-2.12-9.01-6.99-9.01h-6.61v23.16h5.37ZM707.16,109.16c4.62,0,7.11-2.13,7.11-8.64v-7.64c0-8.14-2.62-10.64-8.86-10.64h-6.12v26.91h7.86ZM755.73,34.05h18.6l14.23,87.63h-13.73l-2.5-17.4v.25h-15.6l-2.5,17.15h-12.73l14.23-87.63ZM770.71,92.63l-6.12-43.31h-.25l-5.99,43.31h12.36ZM802.05,34.05h20.34c14.23,0,20.34,6.63,20.34,20.15v5.38c0,9.01-2.87,14.77-8.99,17.27v.25c6.86,2.13,9.11,8.64,9.11,18.53v15.4c0,4.26.12,7.39,1.5,10.64h-13.98c-.75-2.25-1.25-3.63-1.25-10.77v-16.02c0-8.14-2.37-10.77-8.61-10.77h-4.74v37.55h-13.73V34.05ZM820.78,71.6c5.12,0,8.24-2.25,8.24-9.26v-6.76c0-6.26-2.12-9.01-6.99-9.01h-6.24v25.04h4.99Z"/><path class="cls-1" d="M1048.86,120.59c.01,4.78-.25,9.39-2.65,13.65-1.33,1.34-2.67,2.68-4,4.01-6.06,3.62-12.75,2.68-19.28,2.55-3.26-.07-5.28-2.39-5.6-5.69-.08-.84-.05-1.7-.05-2.55,0-35.27,0-70.54,0-105.81,0-6.44,1.85-8.32,8.19-8.33,1.13,0,2.27.06,3.39,0,4.68-.27,9.2.25,13.35,2.65,1.33,1.34,2.67,2.68,4,4.01,2.39,4.26,2.67,8.88,2.65,13.65-.08,27.28-.08,54.57,0,81.85ZM84.77.53c-4.62-.07-9.24-.02-13.85-.01-6.31,0-8.31,1.98-8.31,8.23,0,47.26,0,94.52,0,141.78,0,.57-.02,1.13,0,1.7.17,4.16,2.39,6.47,6.57,6.53,5.37.08,10.74.06,16.11,0,4.33-.06,8.08-1.61,10.66-4.27,3.63-3.67,5.05-7.56,5.05-12.01,0-41.87.02-83.74-.03-125.61-.01-9.55-6.7-16.19-16.22-16.32ZM1007.62,8.67c0-6.09-2.06-8.13-8.15-8.13-4.53,0-9.05-.03-13.58,0-10.04.07-16.64,6.69-16.67,16.75-.03,7.94,0,15.89,0,23.83,0,33.48.02,66.96-.01,100.44,0,4.85,1.22,9.14,4.15,12.01,3.55,3.53,7.12,5.1,11.25,5.18,5.47.1,10.94.12,16.41.02,4.28-.08,6.52-2.46,6.62-6.81.06-2.46.01-4.92.01-7.38,0-45.3,0-90.61-.01-135.91ZM46.66,18.41c-3.21-.01-6.41-.06-9.62.02-8.89.23-15.58,6.8-15.61,15.73-.09,30.35-.04,60.7,0,91.05,0,4.26,1.63,7.9,3.9,10.32,3.47,3.5,7.15,5.16,11.26,5.3,2.83.09,5.66.06,8.48.05,5.8-.01,7.87-2.06,7.87-7.82,0-16.83,0-33.66,0-50.49,0-19.29,0-38.58,0-57.87,0-4.72-1.59-6.28-6.28-6.3ZM10.25,63.9c-.86-.39-2.54.22-3.47.92C-.11,69.98-1.68,84.66,3.81,91.6c.35.44.72.87,1.15,1.38.35.31.71.82,1.2,1.03,1.38.57,2.82,1.01,4.23,1.5.45-1.34,1.28-2.68,1.3-4.03.12-8.11.11-16.22,0-24.33-.02-1.15-.62-2.88-1.44-3.25ZM1069.32,75.73c-.18-4.52-2.15-8.19-5.79-10.81-1.01-.72-2.68-1.28-3.72-.93-.74.25-1.27,2.15-1.28,3.32-.11,8.2-.12,16.41.01,24.61.02,1.23.64,3.13,1.48,3.48.94.38,2.48-.62,3.71-1.13.5-.21.87-.71,1.02-.84,2.85-2.8,4.37-5.88,4.54-9.52.12-2.73.13-5.47.03-8.2ZM168.25,61.88v.02c-17.19,0-34.39,0-51.58,0-4.32,0-5.99,1.7-6,6.03-.02,7.56,0,15.12,0,22.68,0,5.31,1.45,6.8,6.66,6.81,9.99,0,19.98,0,29.97,0,6.99,0,13.97,0,20.96,0v-.02c9.57,0,19.13,0,28.7,0v-35.52c-9.57,0-19.13,0-28.7,0ZM959.56,67.99c-.01-4.35-1.69-6.08-5.96-6.08-17.2,0-34.41,0-51.61,0v.03c-9.57,0-19.13,0-28.7,0v35.52c9.57,0,19.13,0,28.7,0v-.03c16.95,0,33.9,0,50.85-.04,1.78,0,3.56-.57,5.67-.93.41-1.93,1-3.43,1.02-4.94.09-7.84.06-15.69.03-23.53Z"/></svg>