<?xml version="1.0" encoding="UTF-8"?><svg id="Layer_2" xmlns="http://www.w3.org/2000/svg" xmlns:xlink="http://www.w3.org/1999/xlink" viewBox="0 0 718.69 718.69"><defs><style>.cls-1{fill:url(#New_Gradient_Swatch_2);}.cls-1,.cls-2{stroke:#010101;stroke-miterlimit:10;}.cls-3{clip-path:url(#clippath);}.cls-4{fill:none;}.cls-4,.cls-5,.cls-6{stroke-width:0px;}.cls-5{fill:#010101;opacity:.15;}.cls-6{fill:#2baae2;}.cls-2{fill:url(#linear-gradient);}</style><clipPath id="clippath"><rect class="cls-4" width="718.69" height="718.69"/></clipPath><linearGradient id="linear-gradient" x1="232.7" y1="359.34" x2="485.99" y2="359.34" gradientUnits="userSpaceOnUse"><stop offset="0" stop-color="#3f4143"/><stop offset=".5" stop-color="#66696c"/><stop offset="1" stop-color="#535456"/></linearGradient><linearGradient id="New_Gradient_Swatch_2" x1="147.44" y1="181.2" x2="571.86" y2="537.34" gradientUnits="userSpaceOnUse"><stop offset="0" stop-color="#85888a"/><stop offset=".1" stop-color="#e7e6e8"/><stop offset=".2" stop-color="#e2e3e4"/><stop offset=".35" stop-color="#97999d"/><stop offset=".5" stop-color="#bcbec0"/><stop offset=".6" stop-color="#f2f1f1"/><stop offset=".75" stop-color="#97999d"/><stop offset=".9" stop-color="#f2f1f1"/><stop offset="1" stop-color="#85888a"/></linearGradient></defs><g id="Layer_1-2"><g class="cls-3"><polygon class="cls-6" points="-58.44 777.11 777.13 777.11 777.13 665.7 -58.44 206.12 -58.44 777.11"/><polygon class="cls-5" points="-58.44 777.11 777.13 777.11 777.13 665.7 -58.44 206.12 -58.44 777.11"/><polygon class="cls-6" points="777.13 -58.42 -58.44 -58.42 -58.44 205.65 777.13 665.22 777.13 -58.42"/></g><path class="cls-2" d="M232.7,197.06h21.88c15.31,0,21.88,7.14,21.88,21.68v5.79c0,9.69-3.09,15.89-9.67,18.58v.27c7.38,2.29,9.8,9.29,9.8,19.93v16.56c0,4.58.13,7.94,1.61,11.45h-15.04c-.81-2.42-1.34-3.9-1.34-11.58v-17.24c0-8.75-2.55-11.58-9.26-11.58h-5.1v40.4h-14.77v-94.26ZM252.84,237.46c5.5,0,8.86-2.42,8.86-9.96v-7.27c0-6.73-2.28-9.69-7.52-9.69h-6.71v26.93h5.37ZM308.04,197.06h20l15.31,94.26h-14.77l-2.69-18.72v.27h-16.78l-2.69,18.45h-13.69l15.31-94.26ZM324.15,260.08l-6.58-46.59h-.27l-6.44,46.59h13.29ZM357.87,197.06h14.77v94.26h-14.77v-94.26ZM387.16,268.97v-5.39h13.96v6.46c0,6.73,2.95,9.16,7.65,9.16s7.65-2.42,7.65-9.43c0-7.81-2.95-12.79-12.62-21.28-12.35-10.91-16.38-18.58-16.38-29.35,0-14.81,7.65-23.43,22.02-23.43s21.48,8.62,21.48,23.7v3.9h-13.96v-4.85c0-6.73-2.69-9.29-7.38-9.29s-7.38,2.56-7.38,9.02c0,6.87,3.09,11.85,12.75,20.33,12.35,10.91,16.25,18.45,16.25,30.16,0,15.35-7.79,23.97-22.29,23.97s-21.75-8.62-21.75-23.7ZM445.71,197.06h40.28v13.47h-25.51v24.91h20.27v13.47h-20.27v28.95h25.51v13.47h-40.28v-94.26ZM290.85,327.24h-15.44v-13.47h45.65v13.47h-15.44v80.79h-14.77v-80.79ZM335.58,313.78h14.77v38.38h15.84v-38.38h14.77v94.26h-14.77v-42.42h-15.84v42.42h-14.77v-94.26ZM395.48,313.78h40.28v13.47h-25.51v24.91h20.27v13.47h-20.27v28.95h25.51v13.47h-40.28v-94.26ZM273.25,428.72h22.29c15.31,0,21.88,7.14,21.88,21.68v3.77c0,9.69-2.95,15.75-9.53,18.45v.27c7.92,2.69,11.01,9.7,11.01,19.66v8.08c0,14.54-7.65,22.35-22.42,22.35h-23.23v-94.26ZM293.79,467.09c5.5,0,8.86-2.42,8.86-9.96v-5.25c0-6.73-2.28-9.69-7.52-9.69h-7.12v24.91h5.77ZM296.47,509.51c4.97,0,7.65-2.29,7.65-9.29v-8.21c0-8.75-2.82-11.45-9.53-11.45h-6.58v28.95h8.46ZM348.72,428.72h20l15.31,94.26h-14.77l-2.69-18.72v.27h-16.78l-2.69,18.45h-13.69l15.31-94.26ZM364.83,491.73l-6.58-46.59h-.27l-6.44,46.59h13.29ZM398.55,428.72h21.88c15.31,0,21.88,7.14,21.88,21.68v5.79c0,9.69-3.09,15.89-9.67,18.58v.27c7.38,2.29,9.8,9.29,9.8,19.93v16.56c0,4.58.13,7.94,1.61,11.45h-15.04c-.81-2.42-1.34-3.9-1.34-11.58v-17.24c0-8.75-2.55-11.58-9.26-11.58h-5.1v40.4h-14.77v-94.26ZM418.69,469.11c5.5,0,8.86-2.42,8.86-9.96v-7.27c0-6.73-2.28-9.69-7.52-9.69h-6.71v26.93h5.37Z"/><path class="cls-1" d="M674.8,403.37c.02,5.14-.27,10.1-2.85,14.68-1.43,1.44-2.87,2.88-4.3,4.32-6.52,3.89-13.71,2.88-20.74,2.74-3.5-.07-5.68-2.57-6.03-6.12-.09-.91-.05-1.83-.05-2.74,0-37.94,0-75.88,0-113.82,0-6.93,1.99-8.95,8.81-8.96,1.22,0,2.44.06,3.65,0,5.04-.29,9.9.27,14.36,2.86,1.43,1.44,2.87,2.88,4.3,4.32,2.58,4.58,2.87,9.55,2.85,14.69-.09,29.35-.09,58.7,0,88.05ZM112.45,274.23c-4.97-.07-9.93-.02-14.9-.01-6.78,0-8.94,2.13-8.94,8.86,0,50.83,0,101.67,0,152.5,0,.61-.02,1.22,0,1.83.18,4.48,2.58,6.95,7.07,7.02,5.78.09,11.56.06,17.33-.01,4.66-.06,8.69-1.74,11.46-4.6,3.9-3.95,5.44-8.13,5.44-12.91,0-45.04.02-90.08-.03-135.12-.01-10.28-7.2-17.41-17.45-17.56ZM630.44,282.98c0-6.55-2.22-8.74-8.77-8.75-4.87,0-9.74-.03-14.61,0-10.8.07-17.89,7.2-17.93,18.02-.03,8.55,0,17.09,0,25.64,0,36.01.02,72.03-.01,108.04,0,5.22,1.31,9.83,4.46,12.91,3.82,3.8,7.66,5.49,12.1,5.57,5.88.1,11.77.13,17.65.02,4.61-.08,7.01-2.64,7.12-7.33.06-2.64.01-5.29.01-7.94,0-48.73,0-97.46-.01-146.2ZM71.46,293.46c-3.45-.01-6.9-.07-10.34.02-9.57.25-16.76,7.31-16.79,16.93-.09,32.65-.04,65.29-.01,97.94,0,4.58,1.75,8.5,4.2,11.1,3.73,3.76,7.69,5.55,12.12,5.7,3.04.1,6.08.06,9.13.05,6.24-.01,8.46-2.22,8.47-8.41,0-18.1,0-36.21,0-54.31,0-20.75,0-41.5,0-62.24,0-5.07-1.71-6.76-6.76-6.78ZM32.3,342.39c-.92-.42-2.73.24-3.73.99-7.41,5.55-9.1,21.34-3.19,28.81.38.48.78.93,1.24,1.49.37.33.76.88,1.29,1.1,1.49.61,3.03,1.09,4.55,1.62.49-1.44,1.37-2.88,1.39-4.33.13-8.72.12-17.45,0-26.17-.02-1.23-.66-3.09-1.55-3.5ZM696.8,355.11c-.19-4.86-2.31-8.81-6.23-11.62-1.08-.78-2.89-1.38-4-1-.79.27-1.36,2.31-1.38,3.57-.11,8.82-.12,17.65.01,26.47.02,1.32.69,3.37,1.59,3.74,1.01.41,2.66-.66,3.99-1.21.53-.22.93-.76,1.1-.9,3.07-3.01,4.71-6.32,4.88-10.24.13-2.93.14-5.88.03-8.82ZM202.25,340.21v.02c-18.49,0-36.99,0-55.48,0-4.65,0-6.44,1.82-6.46,6.49-.02,8.13,0,16.27,0,24.4,0,5.72,1.56,7.32,7.17,7.32,10.74.01,21.49,0,32.23,0,7.52,0,15.03,0,22.54,0v-.02c10.29,0,20.58,0,30.87,0v-38.21c-10.29,0-20.58,0-30.87,0ZM578.74,346.79c-.02-4.68-1.81-6.54-6.41-6.54-18.5,0-37.01,0-55.51,0v.03c-10.29,0-20.58,0-30.87,0v38.21c10.29,0,20.58,0,30.87,0v-.03c18.23,0,36.47,0,54.7-.04,1.92,0,3.83-.61,6.1-1,.44-2.07,1.07-3.69,1.09-5.31.1-8.44.06-16.87.03-25.31Z"/></g></svg>